<?xml version="1.0" encoding="utf-8"?>
<!-- Generator: Adobe Illustrator 15.1.0, SVG Export Plug-In . SVG Version: 6.00 Build 0)  -->
<!DOCTYPE svg PUBLIC "-//W3C//DTD SVG 1.1//EN" "http://www.w3.org/Graphics/SVG/1.1/DTD/svg11.dtd">
<svg version="1.1" id="Layer_1" xmlns="http://www.w3.org/2000/svg" xmlns:xlink="http://www.w3.org/1999/xlink" x="0px" y="0px"
	 width="200px" height="200px" viewBox="0 0 200 200" enable-background="new 0 0 200 200" xml:space="preserve">
<g>
	<g>
		<defs>
			<rect id="SVGID_2_" width="200" height="200"/>
		</defs>
		<clipPath id="SVGID_3_">
			<use xlink:href="#SVGID_2_"  overflow="visible"/>
		</clipPath>
		
			<path clip-path="url(#SVGID_3_)" fill="none" stroke="#010101" stroke-width="8" stroke-linecap="round" stroke-miterlimit="10" d="
			M7.875,72.906C5.352,81.496,4,90.59,4,100c0,10.613,1.723,20.824,4.902,30.371"/>
	</g>
	<g>
		<defs>
			<rect id="SVGID_4_" width="200" height="200"/>
		</defs>
		<clipPath id="SVGID_5_">
			<use xlink:href="#SVGID_4_"  overflow="visible"/>
		</clipPath>
		
			<path clip-path="url(#SVGID_5_)" fill="none" stroke="#010101" stroke-width="8" stroke-linecap="round" stroke-miterlimit="10" d="
			M98.922,4C61.418,4.414,29.07,26.344,13.641,58.02"/>
	</g>
	<g>
		<defs>
			<rect id="SVGID_6_" width="200" height="200"/>
		</defs>
		<clipPath id="SVGID_7_">
			<use xlink:href="#SVGID_6_"  overflow="visible"/>
		</clipPath>
		
			<path clip-path="url(#SVGID_7_)" fill="none" stroke="#010101" stroke-width="8" stroke-linecap="round" stroke-miterlimit="10" d="
			M196,97.258c-1.309-46.715-36.047-85.098-81.121-92.113"/>
	</g>
	<g>
		<defs>
			<rect id="SVGID_8_" width="200" height="200"/>
		</defs>
		<clipPath id="SVGID_9_">
			<use xlink:href="#SVGID_8_"  overflow="visible"/>
		</clipPath>
		
			<path clip-path="url(#SVGID_9_)" fill="none" stroke="#010101" stroke-width="8" stroke-linecap="round" stroke-miterlimit="10" d="
			M94.336,181.988c-1.91,5.297-3.844,9.813-5.492,13.352"/>
	</g>
	<g>
		<defs>
			<rect id="SVGID_10_" width="200" height="200"/>
		</defs>
		<clipPath id="SVGID_11_">
			<use xlink:href="#SVGID_10_"  overflow="visible"/>
		</clipPath>
		
			<path clip-path="url(#SVGID_11_)" fill="none" stroke="#010101" stroke-width="8" stroke-linecap="round" stroke-miterlimit="10" d="
			M100,100c0,0,6.266,25.34,1.602,54.172c-0.703,4.348-1.585,8.518-2.578,12.461"/>
	</g>
	<g>
		<defs>
			<rect id="SVGID_12_" width="200" height="200"/>
		</defs>
		<clipPath id="SVGID_13_">
			<use xlink:href="#SVGID_12_"  overflow="visible"/>
		</clipPath>
		
			<path clip-path="url(#SVGID_13_)" fill="none" stroke="#010101" stroke-width="8" stroke-linecap="round" stroke-miterlimit="10" d="
			M118.355,148.711c-0.207,1.816-0.457,3.641-0.754,5.461c-2.906,17.965-8.017,33.133-11.453,41.828"/>
	</g>
	<g>
		<defs>
			<rect id="SVGID_14_" width="200" height="200"/>
		</defs>
		<clipPath id="SVGID_15_">
			<use xlink:href="#SVGID_14_"  overflow="visible"/>
		</clipPath>
		
			<path clip-path="url(#SVGID_15_)" fill="none" stroke="#010101" stroke-width="8" stroke-linecap="round" stroke-miterlimit="10" d="
			M72.34,191.934c4.516-8.879,10.051-22.117,12.75-37.672c3.984-22.988,0.531-43.979-0.84-51.434C84.086,101.91,84,100.965,84,100
			c0-8.836,7.164-16,16-16c7.586,0,13.938,5.277,15.582,12.363c0,0,3.73,16.18,3.672,36.387"/>
	</g>
	<g>
		<defs>
			<rect id="SVGID_16_" width="200" height="200"/>
		</defs>
		<clipPath id="SVGID_17_">
			<use xlink:href="#SVGID_16_"  overflow="visible"/>
		</clipPath>
		
			<path clip-path="url(#SVGID_17_)" fill="none" stroke="#010101" stroke-width="8" stroke-linecap="round" stroke-miterlimit="10" d="
			M182.832,128.75c0.117,6.371,0.035,13.25-0.363,20.438"/>
	</g>
	<g>
		<defs>
			<rect id="SVGID_18_" width="200" height="200"/>
		</defs>
		<clipPath id="SVGID_19_">
			<use xlink:href="#SVGID_18_"  overflow="visible"/>
		</clipPath>
		
			<path clip-path="url(#SVGID_19_)" fill="none" stroke="#010101" stroke-width="8" stroke-linecap="round" stroke-miterlimit="10" d="
			M68.617,26.387C78.254,22.278,88.863,20,100,20c40.391,0,73.902,30.11,79.336,69c0,0,1.727,9.285,2.77,23.738"/>
	</g>
	<g>
		<defs>
			<rect id="SVGID_20_" width="200" height="200"/>
		</defs>
		<clipPath id="SVGID_21_">
			<use xlink:href="#SVGID_20_"  overflow="visible"/>
		</clipPath>
		
			<path clip-path="url(#SVGID_21_)" fill="none" stroke="#010101" stroke-width="8" stroke-linecap="round" stroke-miterlimit="10" d="
			M19.703,152.629c0.957-2.441,1.789-5.035,2.422-7.754c2.308-9.926,0.375-23.941-1.02-31.543C20.379,108.996,20,104.543,20,100
			c0-27.367,13.742-51.523,34.699-65.949"/>
	</g>
	<g>
		<defs>
			<rect id="SVGID_22_" width="200" height="200"/>
		</defs>
		<clipPath id="SVGID_23_">
			<use xlink:href="#SVGID_22_"  overflow="visible"/>
		</clipPath>
		
			<path clip-path="url(#SVGID_23_)" fill="none" stroke="#010101" stroke-width="8" stroke-linecap="round" stroke-miterlimit="10" d="
			M115.922,37.996C110.832,36.691,105.496,36,100,36c-35.348,0-64,28.652-64,64c0,3.316,0.254,6.574,0.742,9.758
			c1.524,8.355,3.5,22.553,0.86,36.914c-1.391,7.57-3.914,14.34-6.692,20.031"/>
	</g>
	<g>
		<defs>
			<rect id="SVGID_24_" width="200" height="200"/>
		</defs>
		<clipPath id="SVGID_25_">
			<use xlink:href="#SVGID_24_"  overflow="visible"/>
		</clipPath>
		
			<path clip-path="url(#SVGID_25_)" fill="none" stroke="#010101" stroke-width="8" stroke-linecap="round" stroke-miterlimit="10" d="
			M163.809,171.688c0.57-3.323,1.086-6.758,1.531-10.28c4.664-36.941-2.063-71.047-2.063-71.047
			c-3.035-20.082-15.398-37.105-32.539-46.508"/>
	</g>
	<g>
		<defs>
			<rect id="SVGID_26_" width="200" height="200"/>
		</defs>
		<clipPath id="SVGID_27_">
			<use xlink:href="#SVGID_26_"  overflow="visible"/>
		</clipPath>
		
			<path clip-path="url(#SVGID_27_)" fill="none" stroke="#010101" stroke-width="8" stroke-linecap="round" stroke-miterlimit="10" d="
			M145.52,84.734c0.609,1.816,1.113,3.684,1.504,5.594c1.867,9.77,5.867,33.988,3.242,60.836
			c-1.258,12.887-3.629,24.527-6.125,34.09"/>
	</g>
	<g>
		<defs>
			<rect id="SVGID_28_" width="200" height="200"/>
		</defs>
		<clipPath id="SVGID_29_">
			<use xlink:href="#SVGID_28_"  overflow="visible"/>
		</clipPath>
		
			<path clip-path="url(#SVGID_29_)" fill="none" stroke="#010101" stroke-width="8" stroke-linecap="round" stroke-miterlimit="10" d="
			M54.332,142.02c1.977-18.266-1.414-32.637-1.414-32.637C52.316,106.348,52,103.211,52,100c0-26.508,21.492-48,48-48
			c15.402,0,29.113,7.254,37.895,18.535"/>
	</g>
	<g>
		<defs>
			<rect id="SVGID_30_" width="200" height="200"/>
		</defs>
		<clipPath id="SVGID_31_">
			<use xlink:href="#SVGID_30_"  overflow="visible"/>
		</clipPath>
		
			<path clip-path="url(#SVGID_31_)" fill="none" stroke="#010101" stroke-width="8" stroke-linecap="round" stroke-miterlimit="10" d="
			M43.406,177.625c2.887-5.605,5.781-12.34,7.898-19.863"/>
	</g>
	<g>
		<defs>
			<rect id="SVGID_32_" width="200" height="200"/>
		</defs>
		<clipPath id="SVGID_33_">
			<use xlink:href="#SVGID_32_"  overflow="visible"/>
		</clipPath>
		
			<path clip-path="url(#SVGID_33_)" fill="none" stroke="#010101" stroke-width="8" stroke-linecap="round" stroke-miterlimit="10" d="
			M88.988,69.945C92.422,68.688,96.129,68,100,68c15.445,0,28.34,10.852,31.344,25.41c1.708,8.191,5.789,31.738,2.883,58.051
			c-1.852,16.703-5.828,31.164-9.276,41.316"/>
	</g>
	<g>
		<defs>
			<rect id="SVGID_34_" width="200" height="200"/>
		</defs>
		<clipPath id="SVGID_35_">
			<use xlink:href="#SVGID_34_"  overflow="visible"/>
		</clipPath>
		
			<path clip-path="url(#SVGID_35_)" fill="none" stroke="#010101" stroke-width="8" stroke-linecap="round" stroke-miterlimit="10" d="
			M57.441,186.098c4.758-9.078,9.684-20.977,11.758-34.098c3.129-19.793,0.777-37.512-0.699-46.25c-0.359-1.914-0.5-3.73-0.5-5.75
			c0-8.078,2.996-15.457,7.934-21.09"/>
	</g>
	<g>
		<rect id="SVGID_1_" fill="none" width="200" height="200"/>
	</g>
</g>
</svg>
