<svg xmlns="http://www.w3.org/2000/svg" xmlns:xlink="http://www.w3.org/1999/xlink" width="200" height="200" viewBox="0 0 200 200"><defs><path id="a" d="M0 0h200v200H0z"/></defs><clipPath id="b"><use xlink:href="#a" overflow="visible"/></clipPath><path clip-path="url(#b)" fill="none" stroke="#FBDB00" stroke-width="8" stroke-linecap="round" stroke-miterlimit="10" d="M7.875 72.906A96.011 96.011 0 0 0 4 100a95.964 95.964 0 0 0 4.902 30.371"/><defs><path id="c" d="M0 0h200v200H0z"/></defs><clipPath id="d"><use xlink:href="#c" overflow="visible"/></clipPath><path clip-path="url(#d)" fill="none" stroke="#FBDB00" stroke-width="8" stroke-linecap="round" stroke-miterlimit="10" d="M98.922 4c-37.504.414-69.852 22.344-85.281 54.02"/><defs><path id="e" d="M0 0h200v200H0z"/></defs><clipPath id="f"><use xlink:href="#e" overflow="visible"/></clipPath><path clip-path="url(#f)" fill="none" stroke="#FBDB00" stroke-width="8" stroke-linecap="round" stroke-miterlimit="10" d="M196 97.258c-1.309-46.715-36.047-85.098-81.121-92.113"/><defs><path id="g" d="M0 0h200v200H0z"/></defs><clipPath id="h"><use xlink:href="#g" overflow="visible"/></clipPath><path clip-path="url(#h)" fill="none" stroke="#FBDB00" stroke-width="8" stroke-linecap="round" stroke-miterlimit="10" d="M94.336 181.988a161.7 161.7 0 0 1-5.492 13.352"/><defs><path id="i" d="M0 0h200v200H0z"/></defs><clipPath id="j"><use xlink:href="#i" overflow="visible"/></clipPath><path clip-path="url(#j)" fill="none" stroke="#FBDB00" stroke-width="8" stroke-linecap="round" stroke-miterlimit="10" d="M100 100s6.266 25.34 1.602 54.172a147.466 147.466 0 0 1-2.578 12.461"/><defs><path id="k" d="M0 0h200v200H0z"/></defs><clipPath id="l"><use xlink:href="#k" overflow="visible"/></clipPath><path clip-path="url(#l)" fill="none" stroke="#FBDB00" stroke-width="8" stroke-linecap="round" stroke-miterlimit="10" d="M118.355 148.711a114.345 114.345 0 0 1-.754 5.461c-2.906 17.965-8.017 33.133-11.453 41.828"/><defs><path id="m" d="M0 0h200v200H0z"/></defs><clipPath id="n"><use xlink:href="#m" overflow="visible"/></clipPath><path clip-path="url(#n)" fill="none" stroke="#FBDB00" stroke-width="8" stroke-linecap="round" stroke-miterlimit="10" d="M72.34 191.934c4.516-8.879 10.051-22.117 12.75-37.672 3.984-22.988.531-43.979-.84-51.434A16.07 16.07 0 0 1 84 100c0-8.836 7.164-16 16-16 7.586 0 13.938 5.277 15.582 12.363 0 0 3.73 16.18 3.672 36.387"/><defs><path id="o" d="M0 0h200v200H0z"/></defs><clipPath id="p"><use xlink:href="#o" overflow="visible"/></clipPath><path clip-path="url(#p)" fill="none" stroke="#FBDB00" stroke-width="8" stroke-linecap="round" stroke-miterlimit="10" d="M182.832 128.75c.117 6.371.035 13.25-.363 20.438"/><defs><path id="q" d="M0 0h200v200H0z"/></defs><clipPath id="r"><use xlink:href="#q" overflow="visible"/></clipPath><path clip-path="url(#r)" fill="none" stroke="#FBDB00" stroke-width="8" stroke-linecap="round" stroke-miterlimit="10" d="M68.617 26.387C78.254 22.278 88.863 20 100 20c40.391 0 73.902 30.11 79.336 69 0 0 1.727 9.285 2.77 23.738"/><defs><path id="s" d="M0 0h200v200H0z"/></defs><clipPath id="t"><use xlink:href="#s" overflow="visible"/></clipPath><path clip-path="url(#t)" fill="none" stroke="#FBDB00" stroke-width="8" stroke-linecap="round" stroke-miterlimit="10" d="M19.703 152.629a56.153 56.153 0 0 0 2.422-7.754c2.308-9.926.375-23.941-1.02-31.543A80.68 80.68 0 0 1 20 100c0-27.367 13.742-51.523 34.699-65.949"/><defs><path id="u" d="M0 0h200v200H0z"/></defs><clipPath id="v"><use xlink:href="#u" overflow="visible"/></clipPath><path clip-path="url(#v)" fill="none" stroke="#FBDB00" stroke-width="8" stroke-linecap="round" stroke-miterlimit="10" d="M115.922 37.996A64.042 64.042 0 0 0 100 36c-35.348 0-64 28.652-64 64 0 3.316.254 6.574.742 9.758 1.524 8.355 3.5 22.553.86 36.914-1.391 7.57-3.914 14.34-6.692 20.031"/><defs><path id="w" d="M0 0h200v200H0z"/></defs><clipPath id="x"><use xlink:href="#w" overflow="visible"/></clipPath><path clip-path="url(#x)" fill="none" stroke="#FBDB00" stroke-width="8" stroke-linecap="round" stroke-miterlimit="10" d="M163.809 171.688a235.41 235.41 0 0 0 1.531-10.28c4.664-36.941-2.063-71.047-2.063-71.047-3.035-20.082-15.398-37.105-32.539-46.508"/><defs><path id="y" d="M0 0h200v200H0z"/></defs><clipPath id="z"><use xlink:href="#y" overflow="visible"/></clipPath><path clip-path="url(#z)" fill="none" stroke="#FBDB00" stroke-width="8" stroke-linecap="round" stroke-miterlimit="10" d="M145.52 84.734a47.653 47.653 0 0 1 1.504 5.594c1.867 9.77 5.867 33.988 3.242 60.836-1.258 12.887-3.629 24.527-6.125 34.09"/><defs><path id="A" d="M0 0h200v200H0z"/></defs><clipPath id="B"><use xlink:href="#A" overflow="visible"/></clipPath><path clip-path="url(#B)" fill="none" stroke="#FBDB00" stroke-width="8" stroke-linecap="round" stroke-miterlimit="10" d="M54.332 142.02c1.977-18.266-1.414-32.637-1.414-32.637A48.187 48.187 0 0 1 52 100c0-26.508 21.492-48 48-48 15.402 0 29.113 7.254 37.895 18.535"/><defs><path id="C" d="M0 0h200v200H0z"/></defs><clipPath id="D"><use xlink:href="#C" overflow="visible"/></clipPath><path clip-path="url(#D)" fill="none" stroke="#FBDB00" stroke-width="8" stroke-linecap="round" stroke-miterlimit="10" d="M43.406 177.625c2.887-5.605 5.781-12.34 7.898-19.863"/><defs><path id="E" d="M0 0h200v200H0z"/></defs><clipPath id="F"><use xlink:href="#E" overflow="visible"/></clipPath><path clip-path="url(#F)" fill="none" stroke="#FBDB00" stroke-width="8" stroke-linecap="round" stroke-miterlimit="10" d="M88.988 69.945A31.965 31.965 0 0 1 100 68c15.445 0 28.34 10.852 31.344 25.41 1.708 8.191 5.789 31.738 2.883 58.051-1.852 16.703-5.828 31.164-9.276 41.316"/><defs><path id="G" d="M0 0h200v200H0z"/></defs><clipPath id="H"><use xlink:href="#G" overflow="visible"/></clipPath><path clip-path="url(#H)" fill="none" stroke="#FBDB00" stroke-width="8" stroke-linecap="round" stroke-miterlimit="10" d="M57.441 186.098c4.758-9.078 9.684-20.977 11.758-34.098 3.129-19.793.777-37.512-.699-46.25-.359-1.914-.5-3.73-.5-5.75a31.888 31.888 0 0 1 7.934-21.09"/><path fill="none" d="M0 0h200v200H0z"/></svg>